<svg width="112" height="106" viewBox="0 0 112 106" fill="none" xmlns="http://www.w3.org/2000/svg">
<path d="M18.9108 102.464L107.547 88.223L109.995 89.5041L108.547 87.1028V20.9398L109.311 20.2217L108.524 19.9574V19.6127L107.766 19.6989L57.6078 2.6598L57.3493 2.23468L56.9644 2.44149L56.568 2.29787L56.3842 2.75746L2.79659 31.4528L2.0153 31.539L2.08423 31.8377L1.23975 32.2858L2.30828 32.8603L17.6412 101.597L16.4061 104.739L18.9108 102.464ZM48.2898 28.0691L69.5456 25.6907L80.6158 44.0741L61.0835 61.8831L39.5002 50.4968L48.2898 28.0691ZM37.9836 49.6983L5.90453 32.8143L46.3882 28.2817L37.9836 49.6983ZM57.2229 5.27943L68.5689 24.0879L48.9906 26.2825L57.2229 5.27943ZM71.3954 25.4839L105.192 21.6981L81.8854 42.8907L71.3954 25.4839ZM81.5063 45.5391L105.399 85.1783L62.6575 62.6873L81.5063 45.5391ZM59.7219 63.055L20.6572 98.5924L38.874 52.0882L59.7219 63.055ZM21.2317 100.396L61.342 63.9167L105.066 86.9247L21.2317 100.396ZM106.87 84.3108L82.7816 44.3729L106.847 22.4851L106.87 84.3108ZM103.819 20.1413L70.4245 23.8811L58.9923 4.92325L103.819 20.1413ZM55.4306 5.20475L47.0833 26.495L7.34648 30.9472L55.4306 5.20475ZM4.27875 33.8943L37.3631 51.2896L18.7499 98.7647L4.27875 33.8943Z" fill="url(#paint0_linear_47_17)"/>
<path d="M76.2844 34.8079V57.655H106.359V62.9747H76.2729V87.6486H70.126V29.5054H109.995V34.8136L76.2844 34.8079Z" fill="#21959C"/>
<path d="M52.8115 32.0675C56.3837 33.5993 59.4306 36.1411 61.5781 39.3806C63.6309 42.5364 64.6554 46.2744 64.6516 50.5945C64.7425 54.5395 63.6739 58.4246 61.5781 61.7682C59.4465 65.0219 56.3948 67.5677 52.8115 69.0813C49.02 70.7664 44.5486 71.609 39.3974 71.609H27.6722V87.6485H14.2236V29.5053H39.3974C44.5448 29.5015 49.0161 30.3555 52.8115 32.0675ZM47.871 58.0225C49.9736 56.2799 51.0249 53.802 51.0249 50.5887C51.0249 47.3755 49.9736 44.8746 47.871 43.086C45.7684 41.3434 42.7045 40.4721 38.6793 40.4721H27.6837V60.6594H38.6506C42.6911 60.6594 45.755 59.7824 47.8423 58.0283L47.871 58.0225Z" fill="#21959C"/>
<path d="M18.5265 105.969C20.9029 105.969 22.8294 104.042 22.8294 101.666C22.8294 99.2895 20.9029 97.3631 18.5265 97.3631C16.1501 97.3631 14.2236 99.2895 14.2236 101.666C14.2236 104.042 16.1501 105.969 18.5265 105.969Z" fill="#21959C"/>
<path d="M107.697 25.5702C110.073 25.5702 112 23.6437 112 21.2673C112 18.8909 110.073 16.9644 107.697 16.9644C105.321 16.9644 103.394 18.8909 103.394 21.2673C103.394 23.6437 105.321 25.5702 107.697 25.5702Z" fill="#21959C"/>
<path d="M107.697 90.5612C109.477 90.5612 110.92 89.1183 110.92 87.3384C110.92 85.5585 109.477 84.1155 107.697 84.1155C105.917 84.1155 104.474 85.5585 104.474 87.3384C104.474 89.1183 105.917 90.5612 107.697 90.5612Z" fill="#21959C"/>
<path d="M2.83123 34.3885C3.98929 34.3885 4.92809 33.4497 4.92809 32.2916C4.92809 31.1336 3.98929 30.1948 2.83123 30.1948C1.67317 30.1948 0.734375 31.1336 0.734375 32.2916C0.734375 33.4497 1.67317 34.3885 2.83123 34.3885Z" fill="#21959C"/>
<path d="M57.0623 6.73292C58.9215 6.73292 60.4287 5.2257 60.4287 3.36646C60.4287 1.50722 58.9215 0 57.0623 0C55.203 0 53.6958 1.50722 53.6958 3.36646C53.6958 5.2257 55.203 6.73292 57.0623 6.73292Z" fill="#21959C"/>
<defs>
<linearGradient id="paint0_linear_47_17" x1="1.23975" y1="53.4899" x2="109.995" y2="53.4899" gradientUnits="userSpaceOnUse">
<stop stop-color="#AFDBDE"/>
<stop offset="1" stop-color="#C7E5E7"/>
</linearGradient>
</defs>
</svg>
